# xmcd
#
# Track frame offsets:
#	150
#	19035
#	32670
#	52925
#	76192
#	97320
#	112822
#	134187
#	149262
#	167447
#	187309
#	204659
#
# Disc length: 2832 seconds
#
# Revision: 0
# Processed by: cddbd v1.5.2PL0 Copyright (c) Steve Scherf et al.
# Submitted via: audiograbber 1.83.01
#
DISCID=a60b0e0c
DTITLE=Amanda Marshall - Everybody's Got A Story [CD-R]
DYEAR=2001
DGENRE=Pop
TTITLE0=Everybody's Got A Story
TTITLE1=The Voice Inside
TTITLE2=The Gypsy
TTITLE3=Colleen (I Saw Him First)
TTITLE4=Double Agent
TTITLE5=Red Magic Marker
TTITLE6=Sunday Morning After
TTITLE7=Love Is My Witness
TTITLE8=Dizzy
TTITLE9=Brand New Beau
TTITLE10=Marry Me
TTITLE11=Inside The Tornado
EXTD=
EXTT0=
EXTT1=
EXTT2=
EXTT3=
EXTT4=
EXTT5=
EXTT6=
EXTT7=
EXTT8=
EXTT9=
EXTT10=
EXTT11=
PLAYORDER=
